<mxfile host="app.diagrams.net" agent="Mozilla/5.0 (Windows NT 10.0; Win64; x64) AppleWebKit/537.36 (KHTML, like Gecko) Chrome/134.0.0.0 Safari/537.36" version="26.2.7">
  <diagram name="Página-1" id="g5n-czC26_oQjYyxEflV">
    <mxGraphModel dx="1428" dy="1920" grid="1" gridSize="10" guides="1" tooltips="1" connect="1" arrows="1" fold="1" page="1" pageScale="1" pageWidth="827" pageHeight="1169" math="0" shadow="0">
      <root>
        <mxCell id="0" />
        <mxCell id="1" parent="0" />
        <mxCell id="fR7EXuj_dLrbR5BsWQ8D-20" style="edgeStyle=orthogonalEdgeStyle;rounded=0;orthogonalLoop=1;jettySize=auto;html=1;entryX=0;entryY=0.5;entryDx=0;entryDy=0;" parent="1" source="fR7EXuj_dLrbR5BsWQ8D-1" target="fR7EXuj_dLrbR5BsWQ8D-2" edge="1">
          <mxGeometry relative="1" as="geometry" />
        </mxCell>
        <mxCell id="fR7EXuj_dLrbR5BsWQ8D-21" style="edgeStyle=orthogonalEdgeStyle;rounded=0;orthogonalLoop=1;jettySize=auto;html=1;entryX=0;entryY=0.5;entryDx=0;entryDy=0;" parent="1" source="fR7EXuj_dLrbR5BsWQ8D-1" target="fR7EXuj_dLrbR5BsWQ8D-3" edge="1">
          <mxGeometry relative="1" as="geometry" />
        </mxCell>
        <mxCell id="fR7EXuj_dLrbR5BsWQ8D-23" style="edgeStyle=orthogonalEdgeStyle;rounded=0;orthogonalLoop=1;jettySize=auto;html=1;entryX=0;entryY=0.5;entryDx=0;entryDy=0;" parent="1" source="fR7EXuj_dLrbR5BsWQ8D-1" target="fR7EXuj_dLrbR5BsWQ8D-5" edge="1">
          <mxGeometry relative="1" as="geometry" />
        </mxCell>
        <mxCell id="fR7EXuj_dLrbR5BsWQ8D-79" style="edgeStyle=orthogonalEdgeStyle;rounded=0;orthogonalLoop=1;jettySize=auto;html=1;entryX=0;entryY=0.5;entryDx=0;entryDy=0;" parent="1" source="fR7EXuj_dLrbR5BsWQ8D-1" target="fR7EXuj_dLrbR5BsWQ8D-78" edge="1">
          <mxGeometry relative="1" as="geometry" />
        </mxCell>
        <mxCell id="fR7EXuj_dLrbR5BsWQ8D-1" value="ADMIN&lt;div&gt;&lt;br&gt;&lt;/div&gt;" style="shape=umlActor;verticalLabelPosition=bottom;verticalAlign=top;html=1;outlineConnect=0;" parent="1" vertex="1">
          <mxGeometry x="14" y="-180" width="30" height="60" as="geometry" />
        </mxCell>
        <mxCell id="fR7EXuj_dLrbR5BsWQ8D-2" value="Gerenciar Usuários&lt;span style=&quot;white-space: pre;&quot;&gt;&#x9;&lt;/span&gt;" style="ellipse;whiteSpace=wrap;html=1;" parent="1" vertex="1">
          <mxGeometry x="244" y="-330" width="120" height="80" as="geometry" />
        </mxCell>
        <mxCell id="fR7EXuj_dLrbR5BsWQ8D-3" value="Gerenciar Médicos e Psicologos" style="ellipse;whiteSpace=wrap;html=1;" parent="1" vertex="1">
          <mxGeometry x="244" y="-220" width="120" height="80" as="geometry" />
        </mxCell>
        <mxCell id="fR7EXuj_dLrbR5BsWQ8D-5" value="&lt;div&gt;Gerenciar Agendamentos&lt;/div&gt;" style="ellipse;whiteSpace=wrap;html=1;" parent="1" vertex="1">
          <mxGeometry x="244" y="-110" width="120" height="80" as="geometry" />
        </mxCell>
        <mxCell id="fR7EXuj_dLrbR5BsWQ8D-34" style="edgeStyle=orthogonalEdgeStyle;rounded=0;orthogonalLoop=1;jettySize=auto;html=1;entryX=0;entryY=0.5;entryDx=0;entryDy=0;" parent="1" source="fR7EXuj_dLrbR5BsWQ8D-26" target="fR7EXuj_dLrbR5BsWQ8D-30" edge="1">
          <mxGeometry relative="1" as="geometry" />
        </mxCell>
        <mxCell id="fR7EXuj_dLrbR5BsWQ8D-35" style="edgeStyle=orthogonalEdgeStyle;rounded=0;orthogonalLoop=1;jettySize=auto;html=1;entryX=0;entryY=0.5;entryDx=0;entryDy=0;" parent="1" source="fR7EXuj_dLrbR5BsWQ8D-26" target="fR7EXuj_dLrbR5BsWQ8D-31" edge="1">
          <mxGeometry relative="1" as="geometry" />
        </mxCell>
        <mxCell id="fR7EXuj_dLrbR5BsWQ8D-36" style="edgeStyle=orthogonalEdgeStyle;rounded=0;orthogonalLoop=1;jettySize=auto;html=1;entryX=0;entryY=0.5;entryDx=0;entryDy=0;" parent="1" source="fR7EXuj_dLrbR5BsWQ8D-26" target="fR7EXuj_dLrbR5BsWQ8D-32" edge="1">
          <mxGeometry relative="1" as="geometry" />
        </mxCell>
        <mxCell id="fR7EXuj_dLrbR5BsWQ8D-69" style="edgeStyle=orthogonalEdgeStyle;rounded=0;orthogonalLoop=1;jettySize=auto;html=1;entryX=0;entryY=0.5;entryDx=0;entryDy=0;" parent="1" source="fR7EXuj_dLrbR5BsWQ8D-26" target="fR7EXuj_dLrbR5BsWQ8D-68" edge="1">
          <mxGeometry relative="1" as="geometry" />
        </mxCell>
        <mxCell id="fR7EXuj_dLrbR5BsWQ8D-70" style="edgeStyle=orthogonalEdgeStyle;rounded=0;orthogonalLoop=1;jettySize=auto;html=1;entryX=0;entryY=0.5;entryDx=0;entryDy=0;" parent="1" source="fR7EXuj_dLrbR5BsWQ8D-26" target="fR7EXuj_dLrbR5BsWQ8D-67" edge="1">
          <mxGeometry relative="1" as="geometry" />
        </mxCell>
        <mxCell id="fR7EXuj_dLrbR5BsWQ8D-74" style="edgeStyle=orthogonalEdgeStyle;rounded=0;orthogonalLoop=1;jettySize=auto;html=1;" parent="1" source="fR7EXuj_dLrbR5BsWQ8D-26" target="fR7EXuj_dLrbR5BsWQ8D-71" edge="1">
          <mxGeometry relative="1" as="geometry" />
        </mxCell>
        <mxCell id="fR7EXuj_dLrbR5BsWQ8D-75" style="edgeStyle=orthogonalEdgeStyle;rounded=0;orthogonalLoop=1;jettySize=auto;html=1;entryX=0;entryY=0.5;entryDx=0;entryDy=0;" parent="1" source="fR7EXuj_dLrbR5BsWQ8D-26" target="fR7EXuj_dLrbR5BsWQ8D-73" edge="1">
          <mxGeometry relative="1" as="geometry" />
        </mxCell>
        <mxCell id="fR7EXuj_dLrbR5BsWQ8D-77" style="edgeStyle=orthogonalEdgeStyle;rounded=0;orthogonalLoop=1;jettySize=auto;html=1;entryX=0;entryY=0.5;entryDx=0;entryDy=0;" parent="1" source="fR7EXuj_dLrbR5BsWQ8D-26" target="fR7EXuj_dLrbR5BsWQ8D-76" edge="1">
          <mxGeometry relative="1" as="geometry" />
        </mxCell>
        <mxCell id="fR7EXuj_dLrbR5BsWQ8D-26" value="Médico&amp;nbsp;&lt;div&gt;&lt;br&gt;&lt;/div&gt;" style="shape=umlActor;verticalLabelPosition=bottom;verticalAlign=top;html=1;outlineConnect=0;" parent="1" vertex="1">
          <mxGeometry x="430" y="-190" width="30" height="60" as="geometry" />
        </mxCell>
        <mxCell id="fR7EXuj_dLrbR5BsWQ8D-30" value="&lt;div&gt;Visualizar Agendamentos&lt;/div&gt;" style="ellipse;whiteSpace=wrap;html=1;" parent="1" vertex="1">
          <mxGeometry x="610" y="-140" width="120" height="80" as="geometry" />
        </mxCell>
        <mxCell id="fR7EXuj_dLrbR5BsWQ8D-31" value="&lt;div&gt;Realizar Consulta&lt;/div&gt;" style="ellipse;whiteSpace=wrap;html=1;" parent="1" vertex="1">
          <mxGeometry x="610" y="-40" width="120" height="80" as="geometry" />
        </mxCell>
        <mxCell id="fR7EXuj_dLrbR5BsWQ8D-32" value="&lt;div&gt;Adicionar Acompanhamento&lt;/div&gt;" style="ellipse;whiteSpace=wrap;html=1;" parent="1" vertex="1">
          <mxGeometry x="610" y="50" width="120" height="80" as="geometry" />
        </mxCell>
        <mxCell id="fR7EXuj_dLrbR5BsWQ8D-47" style="edgeStyle=orthogonalEdgeStyle;rounded=0;orthogonalLoop=1;jettySize=auto;html=1;entryX=1;entryY=0.5;entryDx=0;entryDy=0;" parent="1" source="fR7EXuj_dLrbR5BsWQ8D-37" target="fR7EXuj_dLrbR5BsWQ8D-40" edge="1">
          <mxGeometry relative="1" as="geometry" />
        </mxCell>
        <mxCell id="fR7EXuj_dLrbR5BsWQ8D-48" style="edgeStyle=orthogonalEdgeStyle;rounded=0;orthogonalLoop=1;jettySize=auto;html=1;entryX=1;entryY=0.5;entryDx=0;entryDy=0;" parent="1" source="fR7EXuj_dLrbR5BsWQ8D-37" target="fR7EXuj_dLrbR5BsWQ8D-41" edge="1">
          <mxGeometry relative="1" as="geometry" />
        </mxCell>
        <mxCell id="fR7EXuj_dLrbR5BsWQ8D-49" style="edgeStyle=orthogonalEdgeStyle;rounded=0;orthogonalLoop=1;jettySize=auto;html=1;entryX=1;entryY=0.5;entryDx=0;entryDy=0;" parent="1" source="fR7EXuj_dLrbR5BsWQ8D-37" target="fR7EXuj_dLrbR5BsWQ8D-42" edge="1">
          <mxGeometry relative="1" as="geometry" />
        </mxCell>
        <mxCell id="fR7EXuj_dLrbR5BsWQ8D-50" style="edgeStyle=orthogonalEdgeStyle;rounded=0;orthogonalLoop=1;jettySize=auto;html=1;entryX=0;entryY=0.5;entryDx=0;entryDy=0;" parent="1" source="fR7EXuj_dLrbR5BsWQ8D-37" target="fR7EXuj_dLrbR5BsWQ8D-43" edge="1">
          <mxGeometry relative="1" as="geometry" />
        </mxCell>
        <mxCell id="fR7EXuj_dLrbR5BsWQ8D-51" style="edgeStyle=orthogonalEdgeStyle;rounded=0;orthogonalLoop=1;jettySize=auto;html=1;entryX=0;entryY=0.5;entryDx=0;entryDy=0;" parent="1" source="fR7EXuj_dLrbR5BsWQ8D-37" target="fR7EXuj_dLrbR5BsWQ8D-44" edge="1">
          <mxGeometry relative="1" as="geometry" />
        </mxCell>
        <mxCell id="fR7EXuj_dLrbR5BsWQ8D-52" style="edgeStyle=orthogonalEdgeStyle;rounded=0;orthogonalLoop=1;jettySize=auto;html=1;entryX=0;entryY=0.5;entryDx=0;entryDy=0;" parent="1" source="fR7EXuj_dLrbR5BsWQ8D-37" target="fR7EXuj_dLrbR5BsWQ8D-45" edge="1">
          <mxGeometry relative="1" as="geometry" />
        </mxCell>
        <mxCell id="fR7EXuj_dLrbR5BsWQ8D-63" style="edgeStyle=orthogonalEdgeStyle;rounded=0;orthogonalLoop=1;jettySize=auto;html=1;entryX=0;entryY=0.5;entryDx=0;entryDy=0;" parent="1" source="fR7EXuj_dLrbR5BsWQ8D-37" target="fR7EXuj_dLrbR5BsWQ8D-60" edge="1">
          <mxGeometry relative="1" as="geometry" />
        </mxCell>
        <mxCell id="fR7EXuj_dLrbR5BsWQ8D-66" style="edgeStyle=orthogonalEdgeStyle;rounded=0;orthogonalLoop=1;jettySize=auto;html=1;entryX=0;entryY=0.5;entryDx=0;entryDy=0;" parent="1" source="fR7EXuj_dLrbR5BsWQ8D-37" target="fR7EXuj_dLrbR5BsWQ8D-65" edge="1">
          <mxGeometry relative="1" as="geometry" />
        </mxCell>
        <mxCell id="fR7EXuj_dLrbR5BsWQ8D-37" value="Usuário" style="shape=umlActor;verticalLabelPosition=bottom;verticalAlign=top;html=1;outlineConnect=0;" parent="1" vertex="1">
          <mxGeometry x="334" y="380" width="30" height="60" as="geometry" />
        </mxCell>
        <mxCell id="fR7EXuj_dLrbR5BsWQ8D-40" value="&lt;div&gt;Cadastrar-se&lt;/div&gt;" style="ellipse;whiteSpace=wrap;html=1;" parent="1" vertex="1">
          <mxGeometry x="140" y="490" width="120" height="80" as="geometry" />
        </mxCell>
        <mxCell id="fR7EXuj_dLrbR5BsWQ8D-41" value="&lt;div&gt;Fazer Login&lt;/div&gt;" style="ellipse;whiteSpace=wrap;html=1;" parent="1" vertex="1">
          <mxGeometry x="140" y="580" width="120" height="80" as="geometry" />
        </mxCell>
        <mxCell id="fR7EXuj_dLrbR5BsWQ8D-42" value="Editar Perfil" style="ellipse;whiteSpace=wrap;html=1;" parent="1" vertex="1">
          <mxGeometry x="140" y="685" width="120" height="80" as="geometry" />
        </mxCell>
        <mxCell id="fR7EXuj_dLrbR5BsWQ8D-43" value="&lt;div&gt;Agendar Consulta&lt;/div&gt;" style="ellipse;whiteSpace=wrap;html=1;" parent="1" vertex="1">
          <mxGeometry x="450" y="490" width="120" height="80" as="geometry" />
        </mxCell>
        <mxCell id="fR7EXuj_dLrbR5BsWQ8D-44" value="&lt;div&gt;Pagar Consulta&lt;/div&gt;" style="ellipse;whiteSpace=wrap;html=1;" parent="1" vertex="1">
          <mxGeometry x="450" y="585" width="120" height="80" as="geometry" />
        </mxCell>
        <mxCell id="fR7EXuj_dLrbR5BsWQ8D-45" value="&lt;div&gt;Visualizar Histórico de Consulta&lt;/div&gt;" style="ellipse;whiteSpace=wrap;html=1;" parent="1" vertex="1">
          <mxGeometry x="450" y="685" width="120" height="80" as="geometry" />
        </mxCell>
        <mxCell id="fR7EXuj_dLrbR5BsWQ8D-55" value="&lt;span style=&quot;white-space: pre;&quot;&gt;&#x9;&lt;/span&gt;Inclui Receber Confirmação por email" style="shape=document;whiteSpace=wrap;html=1;boundedLbl=1;" parent="1" vertex="1">
          <mxGeometry x="660" y="520" width="120" height="80" as="geometry" />
        </mxCell>
        <mxCell id="fR7EXuj_dLrbR5BsWQ8D-57" value="Inclui Receber Lembrete da Consulta" style="shape=document;whiteSpace=wrap;html=1;boundedLbl=1;" parent="1" vertex="1">
          <mxGeometry x="660" y="620" width="120" height="80" as="geometry" />
        </mxCell>
        <mxCell id="fR7EXuj_dLrbR5BsWQ8D-58" style="edgeStyle=orthogonalEdgeStyle;rounded=0;orthogonalLoop=1;jettySize=auto;html=1;entryX=0;entryY=0.4;entryDx=0;entryDy=0;entryPerimeter=0;" parent="1" source="fR7EXuj_dLrbR5BsWQ8D-44" target="fR7EXuj_dLrbR5BsWQ8D-55" edge="1">
          <mxGeometry relative="1" as="geometry" />
        </mxCell>
        <mxCell id="fR7EXuj_dLrbR5BsWQ8D-59" style="edgeStyle=orthogonalEdgeStyle;rounded=0;orthogonalLoop=1;jettySize=auto;html=1;entryX=-0.025;entryY=0.413;entryDx=0;entryDy=0;entryPerimeter=0;" parent="1" source="fR7EXuj_dLrbR5BsWQ8D-44" target="fR7EXuj_dLrbR5BsWQ8D-57" edge="1">
          <mxGeometry relative="1" as="geometry" />
        </mxCell>
        <mxCell id="fR7EXuj_dLrbR5BsWQ8D-60" value="&lt;div&gt;Receber Confirmação Consulta (email)&lt;/div&gt;" style="ellipse;whiteSpace=wrap;html=1;" parent="1" vertex="1">
          <mxGeometry x="450" y="790" width="120" height="80" as="geometry" />
        </mxCell>
        <mxCell id="fR7EXuj_dLrbR5BsWQ8D-61" value="Receber Lembrete Consulta (email)" style="ellipse;whiteSpace=wrap;html=1;" parent="1" vertex="1">
          <mxGeometry x="140" y="790" width="120" height="80" as="geometry" />
        </mxCell>
        <mxCell id="fR7EXuj_dLrbR5BsWQ8D-62" style="edgeStyle=orthogonalEdgeStyle;rounded=0;orthogonalLoop=1;jettySize=auto;html=1;entryX=0.992;entryY=0.613;entryDx=0;entryDy=0;entryPerimeter=0;" parent="1" source="fR7EXuj_dLrbR5BsWQ8D-37" target="fR7EXuj_dLrbR5BsWQ8D-61" edge="1">
          <mxGeometry relative="1" as="geometry" />
        </mxCell>
        <mxCell id="fR7EXuj_dLrbR5BsWQ8D-65" value="&lt;div&gt;Cancelar Consulta&lt;/div&gt;" style="ellipse;whiteSpace=wrap;html=1;" parent="1" vertex="1">
          <mxGeometry x="450" y="890" width="120" height="80" as="geometry" />
        </mxCell>
        <mxCell id="fR7EXuj_dLrbR5BsWQ8D-67" value="Cadastrar-se" style="ellipse;whiteSpace=wrap;html=1;" parent="1" vertex="1">
          <mxGeometry x="610" y="-440" width="120" height="80" as="geometry" />
        </mxCell>
        <mxCell id="fR7EXuj_dLrbR5BsWQ8D-68" value="Login" style="ellipse;whiteSpace=wrap;html=1;" parent="1" vertex="1">
          <mxGeometry x="610" y="-340" width="120" height="80" as="geometry" />
        </mxCell>
        <mxCell id="fR7EXuj_dLrbR5BsWQ8D-71" value="Editar Perfil" style="ellipse;whiteSpace=wrap;html=1;" parent="1" vertex="1">
          <mxGeometry x="610" y="-240" width="120" height="80" as="geometry" />
        </mxCell>
        <mxCell id="fR7EXuj_dLrbR5BsWQ8D-73" value="Visualizar agenda das Consultas" style="ellipse;whiteSpace=wrap;html=1;" parent="1" vertex="1">
          <mxGeometry x="610" y="140" width="120" height="80" as="geometry" />
        </mxCell>
        <mxCell id="fR7EXuj_dLrbR5BsWQ8D-76" value="Receber Pagamento" style="ellipse;whiteSpace=wrap;html=1;" parent="1" vertex="1">
          <mxGeometry x="610" y="230" width="120" height="80" as="geometry" />
        </mxCell>
        <mxCell id="fR7EXuj_dLrbR5BsWQ8D-78" value="Receber pagamento" style="ellipse;whiteSpace=wrap;html=1;" parent="1" vertex="1">
          <mxGeometry x="244" y="-20" width="120" height="80" as="geometry" />
        </mxCell>
      </root>
    </mxGraphModel>
  </diagram>
</mxfile>
